<!-- Generator: Adobe Illustrator 19.0.0, SVG Export Plug-In  -->
<svg version="1.1"
	 xmlns="http://www.w3.org/2000/svg" xmlns:xlink="http://www.w3.org/1999/xlink" xmlns:a="http://ns.adobe.com/AdobeSVGViewerExtensions/3.0/"
	 x="0px" y="0px" width="60px" height="20px" viewBox="0 0 60 20" style="enable-background:new 0 0 60 20;" xml:space="preserve">
<style type="text/css">
	.st0{fill:#333333;}
</style>
<defs>
</defs>
<g id="_x31_4_2_">
	<g>
		<path class="st0" d="M58,16H2c-1.1,0-2,0.9-2,2c0,1.1,0.9,2,2,2h56c1.1,0,2-0.9,2-2C60,16.9,59.1,16,58,16z M58,8H2
			c-1.1,0-2,0.9-2,2c0,1.1,0.9,2,2,2h56c1.1,0,2-0.9,2-2C60,8.9,59.1,8,58,8z M2,4h56c1.1,0,2-0.9,2-2c0-1.1-0.9-2-2-2H2
			C0.9,0,0,0.9,0,2C0,3.1,0.9,4,2,4z"/>
	</g>
</g>
</svg>
